<?xml version="1.0" encoding="utf-8"?>
<!-- Generator: Adobe Illustrator 16.0.0, SVG Export Plug-In . SVG Version: 6.00 Build 0)  -->
<!DOCTYPE svg PUBLIC "-//W3C//DTD SVG 1.1//EN" "http://www.w3.org/Graphics/SVG/1.1/DTD/svg11.dtd" [
	<!ENTITY ns_extend "http://ns.adobe.com/Extensibility/1.0/">
	<!ENTITY ns_ai "http://ns.adobe.com/AdobeIllustrator/10.0/">
	<!ENTITY ns_graphs "http://ns.adobe.com/Graphs/1.0/">
	<!ENTITY ns_vars "http://ns.adobe.com/Variables/1.0/">
	<!ENTITY ns_imrep "http://ns.adobe.com/ImageReplacement/1.0/">
	<!ENTITY ns_sfw "http://ns.adobe.com/SaveForWeb/1.0/">
	<!ENTITY ns_custom "http://ns.adobe.com/GenericCustomNamespace/1.0/">
	<!ENTITY ns_adobe_xpath "http://ns.adobe.com/XPath/1.0/">
]>
<svg version="1.1" id="Layer_1" xmlns:x="&ns_extend;" xmlns:i="&ns_ai;" xmlns:graph="&ns_graphs;"
	 xmlns="http://www.w3.org/2000/svg" xmlns:xlink="http://www.w3.org/1999/xlink" x="0px" y="0px" width="206.055px"
	 height="157.607px" viewBox="0 0 206.055 157.607" enable-background="new 0 0 206.055 157.607" xml:space="preserve">
<metadata>
	<sfw  xmlns="&ns_sfw;">
		<slices></slices>
		<sliceSourceBounds  height="1322.121" width="1058.27" bottomLeftOrigin="true" y="-5316.646" x="1167.314"></sliceSourceBounds>
	</sfw>
</metadata>
<linearGradient id="SVGID_1_" gradientUnits="userSpaceOnUse" x1="-897.5264" y1="1423.166" x2="-803.8623" y2="1423.166" gradientTransform="matrix(0.6701 0.7422 -0.7422 0.6701 1735.8467 -264.2402)">
	<stop  offset="0.4032" style="stop-color:#C28EBF"/>
	<stop  offset="1" style="stop-color:#9EB5DE"/>
</linearGradient>
<path fill="url(#SVGID_1_)" d="M147.984,81.878c1.703-5.268,1.568-10.686-0.045-15.562c-1.615-4.881-4.715-9.221-8.941-12.33
	c-0.023-0.018-0.051-0.035-0.076-0.051c-0.025-0.018-0.051-0.035-0.074-0.055c-2.596-1.881-4.258-4.568-4.895-7.471
	c-0.609-2.91-0.193-6.047,1.408-8.826c0.014-0.027,0.029-0.053,0.047-0.078c0.016-0.027,0.031-0.055,0.049-0.078
	c2.584-4.566,3.633-9.795,3.111-14.908s-2.619-10.113-6.326-14.219c-3.066-3.4-6.854-5.76-10.922-7.066
	c-4.062-1.326-8.52-1.633-13.004-0.674c-5.408,1.158-10.035,3.982-13.453,7.822c-3.42,3.84-5.629,8.691-6.207,13.906
	c-0.004,0.031-0.006,0.062-0.008,0.092c-0.002,0.031-0.004,0.062-0.008,0.092c-0.332,3.191-1.828,5.975-4.025,7.977
	c-2.217,1.98-5.139,3.188-8.346,3.193c-0.029,0-0.061,0-0.092-0.002c-0.031,0-0.061-0.002-0.094-0.004
	c-5.244,0.047-10.297,1.75-14.465,4.76c-4.168,3.008-7.449,7.324-9.152,12.588c-1.41,4.359-1.561,8.822-0.654,12.998
	c0.885,4.182,2.846,8.191,5.916,11.59c3.707,4.107,8.469,6.701,13.502,7.744c5.033,1.039,10.342,0.525,15.146-1.58
	c0.027-0.012,0.055-0.027,0.084-0.039c0.027-0.014,0.055-0.027,0.082-0.039c2.928-1.309,6.088-1.404,8.92-0.502
	c2.824,0.928,5.332,2.855,6.938,5.629c0.016,0.027,0.029,0.055,0.045,0.082c0.014,0.027,0.029,0.055,0.043,0.08
	c2.664,4.521,6.666,8.047,11.354,10.15c4.691,2.105,10.068,2.789,15.48,1.631c4.477-0.957,8.414-3.057,11.578-5.928
	C144.082,89.944,146.576,86.237,147.984,81.878z"/>
<linearGradient id="SVGID_2_" gradientUnits="userSpaceOnUse" x1="33.3125" y1="58.6904" x2="167.9043" y2="58.6904">
	<stop  offset="0.4032" style="stop-color:#3C8ECD"/>
	<stop  offset="0.9943" style="stop-color:#82CEF2"/>
</linearGradient>
<path fill="url(#SVGID_2_)" d="M150.857,41.642c-6.398,0-11.969,3.525-14.885,8.738c-0.064,0.121-0.131,0.242-0.199,0.361
	c-0.002,0.006-0.004,0.01-0.008,0.014l0,0c-2.154,3.752-6.197,6.277-10.834,6.277c-5.977,0-10.969-4.197-12.195-9.805l-0.002,0.004
	c-4.943-16.805-20.482-29.074-38.889-29.074c-22.385,0-40.531,18.146-40.531,40.533h-0.002c0,22.385,18.148,40.533,40.533,40.533
	c18.406,0,33.945-12.271,38.889-29.076l0.002,0.004c1.227-5.607,6.219-9.803,12.195-9.803c4.635,0,8.68,2.525,10.834,6.275l0,0
	c0.004,0.006,0.006,0.01,0.008,0.016c0.068,0.119,0.135,0.238,0.199,0.361c2.916,5.211,8.486,8.736,14.885,8.736
	c9.414,0,17.045-7.633,17.045-17.047h0.002C167.904,49.274,160.271,41.642,150.857,41.642z"/>
<linearGradient id="SVGID_3_" gradientUnits="userSpaceOnUse" x1="51.2441" y1="54.1123" x2="149.1973" y2="54.1123">
	<stop  offset="0.4032" style="stop-color:#2E4F9A"/>
	<stop  offset="0.9943" style="stop-color:#4883C6"/>
</linearGradient>
<path fill="url(#SVGID_3_)" d="M138.998,53.985c-0.023-0.018-0.051-0.035-0.076-0.051c-0.025-0.018-0.051-0.035-0.074-0.055
	c-1.235-0.896-2.252-1.978-3.055-3.174c-0.007,0.012-0.013,0.023-0.02,0.035c-0.002,0.006-0.004,0.01-0.008,0.014
	c-2.154,3.752-6.197,6.277-10.834,6.277c-5.977,0-10.969-4.197-12.195-9.805l-0.002,0.004c-3.52-11.966-12.414-21.627-23.889-26.202
	c-0.068,0.419-0.143,0.836-0.189,1.259c-0.004,0.031-0.006,0.062-0.008,0.092c-0.002,0.031-0.004,0.062-0.008,0.092
	c-0.332,3.191-1.828,5.975-4.025,7.977c-2.217,1.98-5.139,3.188-8.346,3.193c-0.029,0-0.061,0-0.092-0.002
	c-0.031,0-0.061-0.002-0.094-0.004c-5.244,0.047-10.297,1.75-14.465,4.76c-4.168,3.008-7.449,7.324-9.152,12.588
	c-1.41,4.359-1.561,8.822-0.654,12.998c0.885,4.182,2.846,8.191,5.916,11.59c3.707,4.107,8.469,6.701,13.502,7.744
	c5.033,1.039,10.342,0.525,15.146-1.58c0.027-0.012,0.055-0.027,0.084-0.039c0.027-0.014,0.055-0.027,0.082-0.039
	c2.928-1.309,6.088-1.404,8.92-0.502c2.824,0.928,5.332,2.855,6.938,5.629c0.016,0.027,0.029,0.055,0.045,0.082
	c0.014,0.027,0.029,0.055,0.043,0.08c0.051,0.085,0.109,0.165,0.16,0.249c4.653-4.701,8.169-10.531,10.086-17.048l0.002,0.004
	c1.227-5.607,6.219-9.803,12.195-9.803c4.635,0,8.68,2.525,10.834,6.275c0.004,0.006,0.006,0.01,0.008,0.016
	c0.068,0.119,0.135,0.238,0.199,0.361c2.653,4.741,7.508,8.078,13.18,8.642c0.191-3.205-0.233-6.366-1.213-9.327
	C146.324,61.435,143.225,57.095,138.998,53.985z"/>
<g>
	<g>
		<g>
			<path fill="#222222" d="M22.521,138.459c0,5.588-3.34,9.302-8.484,9.302c-2.385,0-4.326-0.954-5.621-2.657v2.453H2.521v-25.283
				h5.895v9.336c1.295-1.669,3.168-2.623,5.484-2.623C19.08,128.986,22.521,132.769,22.521,138.459z M16.594,138.289
				c0-2.795-1.67-4.771-4.123-4.771c-2.385,0-4.055,1.977-4.055,4.771c0,2.861,1.67,4.804,4.055,4.804
				C14.924,143.093,16.594,141.116,16.594,138.289z"/>
			<path fill="#222222" d="M41.941,135.562v11.994h-5.758v-2.113c-1.193,1.568-3.135,2.385-5.623,2.385
				c-3.918,0-6.303-2.385-6.303-5.758c0-3.475,2.486-5.52,7.053-5.554h4.838v-0.272c0-1.807-1.191-2.896-3.578-2.896
				c-1.533,0-3.543,0.545-5.484,1.533l-1.67-3.885c2.861-1.328,5.451-2.078,8.518-2.078
				C38.977,128.918,41.906,131.406,41.941,135.562z M36.148,141.32v-1.635h-3.713c-1.773,0-2.658,0.613-2.658,1.977
				c0,1.328,0.953,2.18,2.59,2.18C34.207,143.842,35.773,142.82,36.148,141.32z"/>
			<path fill="#222222" d="M64.871,135.971v11.586H59.01v-9.949c0-2.146-1.26-3.477-3.236-3.477c-2.146,0-3.51,1.533-3.748,3.715
				v9.711h-5.895v-18.365h5.895v2.998c1.295-2.146,3.408-3.237,6.133-3.271C62.213,128.918,64.871,131.678,64.871,135.971z"/>
			<path fill="#222222" d="M75.125,142.547v5.01H69.23v-25.283h5.895v13.357l6.064-6.439h6.678l-6.746,7.053l6.951,11.312h-6.984
				l-3.986-7.088L75.125,142.547z"/>
			<path fill="#222222" d="M90.047,138.97v-3.714h8.994v3.714H90.047z"/>
			<path fill="#222222" d="M107.66,147.557l-6.916-18.365h6.064l3.953,12.981l3.986-12.981h5.861l-6.918,18.365H107.66z"/>
			<path fill="#222222" d="M138.393,135.562v11.994h-5.758v-2.113c-1.191,1.568-3.135,2.385-5.621,2.385
				c-3.92,0-6.305-2.385-6.305-5.758c0-3.475,2.488-5.52,7.053-5.554h4.84v-0.272c0-1.807-1.193-2.896-3.578-2.896
				c-1.533,0-3.543,0.545-5.486,1.533l-1.67-3.885c2.863-1.328,5.453-2.078,8.52-2.078
				C135.43,128.918,138.359,131.406,138.393,135.562z M132.602,141.32v-1.635h-3.715c-1.771,0-2.658,0.613-2.658,1.977
				c0,1.328,0.955,2.18,2.59,2.18C130.658,143.842,132.227,142.82,132.602,141.32z"/>
			<path fill="#222222" d="M160.471,147.557h-5.895v-3.033c-1.262,2.181-3.305,3.271-5.963,3.271c-3.986,0-6.576-2.727-6.576-7.02
				v-11.584h5.895v9.914c0,2.182,1.191,3.51,3.066,3.51c2.248-0.033,3.578-1.873,3.578-4.361v-9.062h5.895V147.557z"/>
			<path fill="#222222" d="M165.342,147.557v-25.283h5.895v25.283H165.342z"/>
			<path fill="#222222" d="M187.965,146.568c-1.328,0.783-3.135,1.26-4.906,1.26c-3.543,0-6.1-2.01-6.1-5.826v-8.109h-2.555v-3.85
				h2.555v-5.111h5.861v5.077h4.803v3.884h-4.803v7.189c0,1.432,0.613,2.045,1.703,2.011c0.613,0,1.396-0.239,2.283-0.613
				L187.965,146.568z"/>
			<path fill="#222222" d="M205.068,130.996l-2.01,3.816c-2.215-1.192-4.26-1.84-5.793-1.84c-1.057,0-1.807,0.409-1.807,1.262
				c0,2.521,9.678,1.294,9.643,7.699c0,3.783-3.305,5.861-7.734,5.861c-3.066,0-6.031-0.887-8.246-2.59l1.875-3.748
				c2.078,1.465,4.463,2.283,6.508,2.283c1.158,0,2.01-0.409,2.01-1.261c0-2.692-9.506-1.295-9.473-7.735
				c0-3.781,3.203-5.826,7.463-5.826C200.162,128.918,202.818,129.668,205.068,130.996z"/>
		</g>
	</g>
	<g>
		<path fill="#222222" d="M4.76,152.44c0.977,0,1.566,0.451,1.566,1.211c0,0.57-0.326,0.979-0.895,1.096
			c0.699,0.105,1.109,0.562,1.109,1.227c0,0.824-0.652,1.316-1.746,1.316h-2.08v-4.85H4.76z M3.27,154.534h1.463
			c0.65,0,1.033-0.285,1.033-0.791c0-0.492-0.383-0.77-1.033-0.77H3.27V154.534z M3.27,156.765h1.463
			c0.791,0,1.248-0.312,1.248-0.867c0-0.525-0.457-0.838-1.248-0.838H3.27V156.765z"/>
		<path fill="#222222" d="M12.168,157.29h-0.549v-1.641l-1.877-3.209h0.576l1.572,2.529l1.553-2.529h0.568l-1.844,3.188V157.29z"/>
		<path fill="#222222" d="M24.266,152.44c0.977,0,1.566,0.451,1.566,1.211c0,0.57-0.326,0.979-0.895,1.096
			c0.699,0.105,1.109,0.562,1.109,1.227c0,0.824-0.652,1.316-1.746,1.316h-2.08v-4.85H24.266z M22.775,154.534h1.463
			c0.65,0,1.031-0.285,1.031-0.791c0-0.492-0.381-0.77-1.031-0.77h-1.463V154.534z M22.775,156.765h1.463
			c0.789,0,1.246-0.312,1.246-0.867c0-0.525-0.457-0.838-1.246-0.838h-1.463V156.765z"/>
		<path fill="#222222" d="M30.377,156.063l-0.541,1.227h-0.59l2.178-4.85h0.572l2.17,4.85h-0.604l-0.539-1.227H30.377z
			 M31.693,153.071l-1.08,2.461h2.174L31.693,153.071z"/>
		<path fill="#222222" d="M41.166,157.29l-2.91-3.895v3.895h-0.555v-4.85h0.574l2.91,3.9v-3.9h0.547v4.85H41.166z"/>
		<path fill="#222222" d="M46.271,156.765h3.25l-0.008,0.525h-3.971v-0.443l3.217-3.873h-3.125v-0.533h3.854v0.443L46.271,156.765z"
			/>
		<path fill="#222222" d="M53.748,156.063l-0.541,1.227h-0.588l2.176-4.85h0.574l2.17,4.85h-0.604l-0.539-1.227H53.748z
			 M55.066,153.071l-1.084,2.461h2.178L55.066,153.071z"/>
		<path fill="#222222" d="M61.072,157.29v-4.85h0.555v4.85H61.072z"/>
		<path fill="#222222" d="M69.92,153.272l-0.928,1.102c-0.293-0.395-0.729-0.652-1.102-0.652c-0.582,0-1.004,0.465-1.004,1.109
			c0,0.652,0.422,1.123,1.004,1.123c0.346,0,0.781-0.215,1.102-0.555l0.928,0.99c-0.541,0.59-1.365,0.971-2.113,0.971
			c-1.49,0-2.57-1.061-2.57-2.508c0-1.428,1.107-2.467,2.633-2.467C68.611,152.386,69.422,152.731,69.92,153.272z"/>
		<path fill="#222222" d="M76.648,155.954v1.336h-3.633v-4.857h1.609v3.521H76.648z"/>
		<path fill="#222222" d="M84.928,154.858c0,1.441-1.121,2.502-2.666,2.502c-1.547,0-2.668-1.055-2.668-2.502
			c0-1.439,1.121-2.473,2.668-2.473C83.807,152.386,84.928,153.425,84.928,154.858z M81.242,154.866
			c0,0.666,0.484,1.156,1.039,1.156s0.998-0.49,0.998-1.156s-0.443-1.145-0.998-1.145C81.721,153.722,81.242,154.2,81.242,154.866z"
			/>
		<path fill="#222222" d="M92.744,155.233c0,1.289-0.908,2.127-2.314,2.127c-1.412,0-2.348-0.838-2.348-2.127v-2.801h1.607v2.801
			c0,0.479,0.346,0.789,0.748,0.789c0.395,0,0.699-0.305,0.699-0.789v-2.801h1.607V155.233z"/>
		<path fill="#222222" d="M98.307,152.433c1.602,0,2.641,0.949,2.641,2.426s-1.059,2.432-2.701,2.432h-2.107v-4.857H98.307z
			 M97.746,156.042h0.604c0.58,0,0.955-0.455,0.955-1.17c0-0.721-0.408-1.191-1.031-1.191h-0.527V156.042z"/>
	</g>
</g>
</svg>
